<svg width="40" height="40" viewBox="0 0 40 40" fill="none" xmlns="http://www.w3.org/2000/svg">
<path d="M21.0148 0.998414L38.0153 8.55399C38.9182 8.95524 39.5 9.85055 39.5 10.8385V29.1615C39.5 30.1495 38.9182 31.0448 38.0153 31.446L21.0148 39.0016C20.3684 39.2889 19.6305 39.2889 18.9841 39.0016L1.98463 31.446C1.08182 31.0448 0.5 30.1495 0.5 29.1615V10.8385C0.5 9.85052 1.08182 8.95523 1.98463 8.55397L18.9841 0.998434C19.6305 0.711133 20.3684 0.711125 21.0148 0.998414Z" fill="#171C1F" stroke="#54ADFF"/>
<path d="M19.9643 8L22.9286 11.0357L15.4643 18.5L12.5 15.5357L19.9643 8Z" fill="#F0B90B" stroke="#F0B90B"/>
<path d="M24.4643 12.5L27.4286 15.5357L15.4643 27.5L12.5 24.5357L24.4643 12.5Z" fill="#F0B90B" stroke="#F0B90B"/>
<path d="M10.9643 17L13.9286 20.0357L10.9643 23L8 20.0357L10.9643 17Z" fill="#F0B90B" stroke="#F0B90B"/>
<path d="M28.9643 17L31.9286 20.0357L19.9643 32L17 29.0357L28.9643 17Z" fill="#F0B90B" stroke="#F0B90B"/>
</svg>
