<svg width="40" height="40" viewBox="0 0 40 40" fill="none" xmlns="http://www.w3.org/2000/svg">
<path d="M21.0148 0.998414L38.0153 8.55399C38.9182 8.95524 39.5 9.85055 39.5 10.8385V29.1615C39.5 30.1495 38.9182 31.0448 38.0153 31.446L21.0148 39.0016C20.3684 39.2889 19.6305 39.2889 18.9841 39.0016L1.98463 31.446C1.08182 31.0448 0.5 30.1495 0.5 29.1615V10.8385C0.5 9.85052 1.08182 8.95523 1.98463 8.55397L18.9841 0.998434C19.6305 0.711133 20.3684 0.711125 21.0148 0.998414Z" fill="#171C1F" stroke="#54ADFF"/>
<path d="M15.339 18.085L20 13.424L24.6631 18.087L27.3751 15.375L20 8L12.6272 15.3728L15.3391 18.0848L15.339 18.085ZM8 20L10.7121 17.2875L13.424 19.9994L10.7119 22.7115L8 20ZM15.339 21.9153L20 26.576L24.663 21.9131L27.3765 24.6236L27.3751 24.6251L20 32L12.6272 24.6272L12.6233 24.6234L15.3393 21.915L15.339 21.9153ZM26.5759 20.0012L29.288 17.2891L31.9999 20.001L29.2879 22.7131L26.5759 20.0012Z" fill="#F3BA2F"/>
<path d="M22.7521 19.998H22.7533L20.0015 17.2461L17.9675 19.2795L17.7338 19.5132L17.2519 19.9952L17.248 19.999L17.2519 20.0029L20.0015 22.7528L22.7535 20.0009L22.7548 19.9993L22.7523 19.998" fill="#F3BA2F"/>
</svg>
