<svg width="40" height="40" viewBox="0 0 40 40" fill="none" xmlns="http://www.w3.org/2000/svg">
<path d="M21.0148 0.998414L38.0153 8.55399C38.9182 8.95524 39.5 9.85055 39.5 10.8385V29.1615C39.5 30.1495 38.9182 31.0448 38.0153 31.446L21.0148 39.0016C20.3684 39.2889 19.6305 39.2889 18.9841 39.0016L1.98463 31.446C1.08182 31.0448 0.5 30.1495 0.5 29.1615V10.8385C0.5 9.85052 1.08182 8.95523 1.98463 8.55397L18.9841 0.998434C19.6305 0.711133 20.3684 0.711125 21.0148 0.998414Z" fill="#171C1F" stroke="#54ADFF"/>
<path d="M19.1886 8C19.7195 8 20.2475 8 20.7784 8C20.8174 8.009 20.8564 8.024 20.8954 8.024C21.3813 8.039 21.8613 8.11401 22.3352 8.21303C22.7072 8.29104 23.0731 8.39005 23.4391 8.49206C24.234 8.71109 24.9869 9.03213 25.7098 9.42218C26.1357 9.65321 26.5407 9.92024 26.9426 10.1903C27.4196 10.5113 27.8635 10.8804 28.2745 11.2824C28.5894 11.5884 28.8954 11.9065 29.1744 12.2455C29.4833 12.6176 29.7743 13.0076 30.0412 13.4097C30.2902 13.7877 30.5152 14.1868 30.7192 14.5918C30.9351 15.0209 31.1331 15.4589 31.2981 15.906C31.4571 16.335 31.5681 16.7851 31.691 17.2262C31.847 17.7962 31.931 18.3783 31.973 18.9694C31.976 19.0144 31.991 19.0564 32 19.1014C32 19.7015 32 20.3015 32 20.9016C31.982 21.0546 31.958 21.2076 31.943 21.3607C31.889 21.9487 31.766 22.5278 31.61 23.0949C31.4871 23.5479 31.3641 24.001 31.1661 24.4301C30.9711 24.8561 30.7972 25.2942 30.5752 25.7082C30.3442 26.1343 30.0772 26.5393 29.8073 26.9414C29.5043 27.3944 29.1534 27.8115 28.7814 28.2105C28.3045 28.7176 27.7885 29.1796 27.2306 29.5967C26.6007 30.0678 25.9348 30.4818 25.2268 30.8239C24.6269 31.1119 24.009 31.3519 23.3671 31.5349C22.6982 31.727 22.0202 31.874 21.3273 31.946C21.1654 31.964 21.0004 31.982 20.8384 32C20.2775 32 19.7195 32 19.1586 32C19.1196 31.991 19.0806 31.979 19.0416 31.973C18.5677 31.907 18.0907 31.859 17.6198 31.775C17.2508 31.709 16.8909 31.6009 16.5309 31.4989C15.895 31.3219 15.2831 31.0759 14.6922 30.7788C14.3082 30.5868 13.9363 30.3708 13.5703 30.1458C12.9074 29.7407 12.2985 29.2607 11.7375 28.7266C11.4496 28.4506 11.1856 28.1505 10.9156 27.8565C10.4507 27.3434 10.0517 26.7793 9.70079 26.1883C9.17885 25.3092 8.7619 24.382 8.47694 23.3949C8.27597 22.7048 8.12898 22.0118 8.05399 21.2977C8.036 21.1386 8.018 20.9736 8 20.8116C8 20.2805 8 19.7525 8 19.2214C8.009 19.1734 8.021 19.1254 8.027 19.0744C8.05399 18.8104 8.06899 18.5463 8.10799 18.2853C8.19498 17.7002 8.32996 17.1301 8.49194 16.5601C8.67492 15.924 8.92088 15.3119 9.20585 14.7178C9.48781 14.1328 9.82077 13.5747 10.1987 13.0436C10.5437 12.5576 10.9186 12.0985 11.3326 11.6725C11.5906 11.4084 11.8665 11.1594 12.1425 10.9164C12.6794 10.4423 13.2583 10.0283 13.8793 9.66521C14.7402 9.16115 15.643 8.75909 16.6059 8.47706C17.2928 8.27903 17.9888 8.13202 18.6997 8.05401C18.8616 8.036 19.0266 8.018 19.1886 8ZM23.625 20.2475C23.637 20.2235 23.64 20.2085 23.646 20.2085C23.724 20.1785 23.805 20.1485 23.886 20.1215C24.4109 19.9445 24.7919 19.6025 25.0349 19.1074C25.1909 18.7893 25.2568 18.4443 25.2898 18.0963C25.3378 17.6102 25.2268 17.1601 24.9569 16.7581C24.7529 16.4521 24.4799 16.209 24.174 16.005C23.742 15.717 23.2711 15.5129 22.7852 15.3389C22.6352 15.2849 22.6322 15.2729 22.6712 15.1199C22.8241 14.5078 22.9741 13.8987 23.1271 13.2867C23.1631 13.1366 23.1511 13.1156 23.0011 13.0766C22.7072 13.0016 22.4102 12.9296 22.1132 12.8546C21.8913 12.8006 21.8913 12.8006 21.8373 13.0256C21.6963 13.5987 21.5523 14.1718 21.4083 14.7418C21.3693 14.8979 21.3573 14.9039 21.2014 14.8679C20.9434 14.8079 20.6854 14.7478 20.4274 14.6848C20.2835 14.6488 20.2775 14.6428 20.3105 14.5018C20.3825 14.2108 20.4544 13.9197 20.5264 13.6287C20.6044 13.3197 20.6824 13.0076 20.7604 12.6986C20.7934 12.5576 20.7814 12.5336 20.6404 12.4946C20.3225 12.4106 20.0015 12.3295 19.6835 12.2485C19.5366 12.2125 19.5276 12.2185 19.4796 12.3835C19.4706 12.4166 19.4616 12.4496 19.4526 12.4856C19.3596 12.8696 19.2666 13.2537 19.1706 13.6377C19.1196 13.8417 19.0656 14.0458 19.0176 14.2468C18.9966 14.3368 18.9486 14.3728 18.8526 14.3458C18.7747 14.3248 18.6967 14.3128 18.6187 14.2918C17.9018 14.1118 17.1849 13.9287 16.4679 13.7487C16.33 13.7127 16.324 13.7187 16.288 13.8627C16.201 14.2168 16.111 14.5708 16.024 14.9249C15.985 15.0749 15.991 15.0779 16.138 15.1169C16.4469 15.1979 16.7589 15.2759 17.0619 15.3749C17.4098 15.4889 17.5628 15.732 17.5418 16.095C17.5388 16.158 17.5238 16.224 17.5088 16.287C17.3648 16.8691 17.2178 17.4512 17.0739 18.0333C17.0259 18.2223 16.9869 18.4143 16.9389 18.6033C16.8339 19.0204 16.7229 19.4344 16.6179 19.8515C16.4409 20.5596 16.27 21.2707 16.09 21.9757C16.027 22.2278 15.835 22.4288 15.5081 22.3598C15.2291 22.3028 14.9531 22.2368 14.6742 22.1738C14.5092 22.1348 14.5032 22.1318 14.4372 22.2848C14.2662 22.6688 14.1012 23.0559 13.9333 23.4399C13.8673 23.5869 13.8703 23.5989 14.0352 23.641C14.5482 23.77 15.0641 23.899 15.5771 24.028C15.838 24.094 16.099 24.163 16.36 24.232C16.4859 24.265 16.4979 24.289 16.4769 24.4121C16.4589 24.4991 16.4409 24.5891 16.4169 24.6761C16.279 25.2192 16.141 25.7622 16.006 26.3053C15.973 26.4403 15.985 26.4643 16.117 26.4973C16.4559 26.5843 16.7949 26.6653 17.1339 26.7553C17.2268 26.7793 17.2658 26.7523 17.2778 26.6653C17.2838 26.6353 17.2928 26.6083 17.2988 26.5783C17.4458 25.9812 17.5928 25.3842 17.7398 24.7871C17.7788 24.6311 17.7938 24.6221 17.9468 24.6611C18.1747 24.7181 18.4027 24.7751 18.6307 24.8321C18.8766 24.8951 18.8766 24.8951 18.8106 25.1471C18.6637 25.7292 18.5197 26.3113 18.3757 26.8934C18.3397 27.0404 18.3457 27.0524 18.4957 27.0914C18.8196 27.1724 19.1466 27.2504 19.4706 27.3284C19.6055 27.3614 19.6145 27.3554 19.6475 27.2234C19.7075 26.9924 19.7645 26.7583 19.8215 26.5243C19.9205 26.1313 20.0195 25.7382 20.1185 25.3452C20.1545 25.2071 20.1815 25.1861 20.3315 25.2101C20.7304 25.2762 21.1294 25.3332 21.5343 25.3602C22.0322 25.3932 22.5212 25.3572 23.0041 25.2282C23.5081 25.0931 23.922 24.8261 24.252 24.4181C24.4769 24.142 24.6359 23.836 24.7589 23.5059C24.9299 23.0439 25.0529 22.5758 25.0079 22.0748C24.9719 21.6847 24.8309 21.3367 24.5939 21.0306C24.387 20.7666 24.129 20.5506 23.835 20.3825C23.766 20.3345 23.694 20.2925 23.625 20.2475Z" fill="#F7931A"/>
<path d="M23.6262 20.2479C23.6951 20.2899 23.7671 20.3349 23.8391 20.3769C24.1331 20.545 24.3911 20.758 24.598 21.025C24.835 21.3281 24.976 21.6761 25.012 22.0692C25.057 22.5702 24.937 23.0383 24.763 23.5003C24.64 23.8304 24.478 24.1364 24.2561 24.4124C23.9261 24.8205 23.5122 25.0875 23.0082 25.2225C22.5253 25.3516 22.0394 25.3846 21.5384 25.3546C21.1335 25.3276 20.7345 25.2706 20.3356 25.2045C20.1856 25.1805 20.1586 25.1985 20.1226 25.3396C20.0236 25.7326 19.9246 26.1257 19.8256 26.5187C19.7686 26.7527 19.7116 26.9838 19.6517 27.2178C19.6187 27.3498 19.6097 27.3558 19.4747 27.3228C19.1477 27.2448 18.8238 27.1668 18.4998 27.0858C18.3528 27.0498 18.3438 27.0348 18.3798 26.8878C18.5238 26.3057 18.6678 25.7236 18.8148 25.1415C18.8777 24.8895 18.8807 24.8895 18.6348 24.8265C18.4068 24.7695 18.1788 24.7095 17.9509 24.6555C17.7979 24.6195 17.7829 24.6255 17.7439 24.7815C17.5969 25.3786 17.4499 25.9756 17.3029 26.5727C17.2969 26.6027 17.2849 26.6297 17.2819 26.6597C17.2699 26.7467 17.228 26.7737 17.138 26.7497C16.799 26.6597 16.4601 26.5787 16.1211 26.4917C15.9891 26.4587 15.9771 26.4347 16.0101 26.2997C16.1481 25.7566 16.2861 25.2135 16.4211 24.6705C16.4421 24.5835 16.4631 24.4965 16.481 24.4064C16.505 24.2834 16.49 24.2594 16.3641 24.2264C16.1031 24.1574 15.8421 24.0884 15.5812 24.0224C15.0682 23.8934 14.5523 23.7674 14.0394 23.6354C13.8744 23.5933 13.8744 23.5813 13.9374 23.4343C14.1053 23.0503 14.2703 22.6632 14.4413 22.2792C14.5073 22.1262 14.5133 22.1292 14.6783 22.1682C14.9542 22.2312 15.2332 22.2972 15.5122 22.3542C15.8391 22.4202 16.0311 22.2192 16.0941 21.9701C16.2771 21.2621 16.4451 20.554 16.622 19.8459C16.727 19.4288 16.838 19.0148 16.943 18.5977C16.991 18.4087 17.03 18.2167 17.078 18.0277C17.222 17.4456 17.3689 16.8635 17.5129 16.2814C17.5279 16.2184 17.5429 16.1554 17.5459 16.0894C17.5669 15.7264 17.4109 15.4803 17.066 15.3693C16.763 15.2703 16.4511 15.1953 16.1421 15.1113C15.9951 15.0723 15.9891 15.0663 16.0281 14.9193C16.1181 14.5652 16.2051 14.2112 16.2921 13.8571C16.3281 13.7131 16.3341 13.7071 16.472 13.7431C17.189 13.9261 17.9059 14.1062 18.6228 14.2862C18.7008 14.3072 18.7788 14.3162 18.8568 14.3402C18.9497 14.3672 18.9977 14.3312 19.0217 14.2412C19.0727 14.0372 19.1267 13.8331 19.1747 13.6321C19.2707 13.2481 19.3637 12.864 19.4567 12.48C19.4657 12.447 19.4747 12.4109 19.4837 12.3779C19.5317 12.2159 19.5407 12.2069 19.6876 12.2429C20.0086 12.3239 20.3266 12.4049 20.6445 12.489C20.7825 12.525 20.7975 12.552 20.7645 12.693C20.6895 13.005 20.6085 13.3141 20.5305 13.6231C20.4586 13.9141 20.3836 14.2052 20.3146 14.4962C20.2816 14.6342 20.2876 14.6432 20.4316 14.6792C20.6895 14.7422 20.9475 14.8022 21.2055 14.8623C21.3584 14.8983 21.3734 14.8923 21.4124 14.7362C21.5564 14.1632 21.7004 13.5931 21.8414 13.02C21.8984 12.795 21.8954 12.795 22.1173 12.849C22.4143 12.924 22.7083 12.996 23.0052 13.071C23.1552 13.11 23.1672 13.131 23.1312 13.2811C22.9812 13.8931 22.8283 14.5052 22.6753 15.1143C22.6363 15.2673 22.6393 15.2793 22.7893 15.3333C23.2752 15.5073 23.7461 15.7144 24.1781 15.9994C24.484 16.2034 24.757 16.4465 24.961 16.7525C25.231 17.1575 25.3419 17.6046 25.2939 18.0907C25.261 18.4417 25.192 18.7837 25.039 19.1018C24.796 19.5968 24.4151 19.9359 23.8901 20.1159C23.8091 20.1429 23.7311 20.1729 23.6502 20.2029C23.6412 20.2119 23.6382 20.2239 23.6262 20.2479ZM20.5875 23.4823C20.9295 23.4943 21.2355 23.4673 21.5384 23.3533C21.8984 23.2183 22.1443 22.9873 22.2643 22.6302C22.4263 22.1562 22.3543 21.7301 22.0004 21.3521C21.6644 20.995 21.2385 20.794 20.7945 20.62C20.2486 20.4039 19.6696 20.2989 19.1057 20.1549C18.9497 20.1159 18.9407 20.1249 18.8987 20.2809C18.8028 20.653 18.7098 21.028 18.6168 21.4001C18.4908 21.8981 18.3648 22.3992 18.2418 22.8973C18.2118 23.0203 18.2328 23.0593 18.3588 23.0923C18.6048 23.1583 18.8508 23.2273 19.0997 23.2753C19.6007 23.3773 20.0926 23.5183 20.5875 23.4823ZM21.2025 19.1948C21.4754 19.2008 21.7394 19.1618 21.9974 19.0748C22.6843 18.8408 22.9632 17.9406 22.5793 17.3616C22.4083 17.1035 22.1713 16.9295 21.9044 16.7825C21.3254 16.4675 20.6865 16.3384 20.0536 16.2004C19.9456 16.1764 19.9156 16.1974 19.8856 16.3174C19.8376 16.5005 19.8016 16.6865 19.7536 16.8725C19.6037 17.4726 19.4507 18.0727 19.3037 18.6757C19.2677 18.8167 19.2827 18.8378 19.4237 18.8768C19.5887 18.9218 19.7506 18.9638 19.9186 19.0028C20.3416 19.0928 20.7645 19.1888 21.2025 19.1948Z" fill="white"/>
<path d="M20.5872 23.4816C20.0953 23.5176 19.6004 23.3766 19.1024 23.2776C18.8535 23.2266 18.6075 23.1576 18.3615 23.0945C18.2355 23.0615 18.2145 23.0225 18.2445 22.8995C18.3675 22.4015 18.4935 21.9004 18.6195 21.4023C18.7125 21.0303 18.8085 20.6552 18.9014 20.2832C18.9404 20.1272 18.9524 20.1182 19.1084 20.1572C19.6753 20.3042 20.2513 20.4062 20.7972 20.6222C21.2412 20.7993 21.6671 20.9973 22.0031 21.3543C22.357 21.7294 22.426 22.1584 22.267 22.6325C22.147 22.9895 21.8981 23.2206 21.5411 23.3556C21.2352 23.4666 20.9262 23.4936 20.5872 23.4816Z" fill="#F7931A"/>
<path d="M21.2012 19.1942C20.7632 19.1882 20.3403 19.0922 19.9173 18.9992C19.7524 18.9632 19.5874 18.9182 19.4224 18.8732C19.2814 18.8342 19.2694 18.8132 19.3024 18.6722C19.4524 18.0721 19.6024 17.472 19.7524 16.869C19.7974 16.6859 19.8363 16.4999 19.8843 16.3139C19.9143 16.1969 19.9413 16.1729 20.0523 16.1969C20.6852 16.3379 21.3242 16.4639 21.9031 16.7789C22.1701 16.923 22.407 17.1 22.578 17.358C22.959 17.9371 22.68 18.8372 21.9961 19.0712C21.7381 19.1612 21.4741 19.1972 21.2012 19.1942Z" fill="#F7931A"/>
</svg>
