<svg width="40" height="40" viewBox="0 0 40 40" fill="none" xmlns="http://www.w3.org/2000/svg">
<path d="M21.0148 0.998414L38.0153 8.55399C38.9182 8.95524 39.5 9.85055 39.5 10.8385V29.1615C39.5 30.1495 38.9182 31.0448 38.0153 31.446L21.0148 39.0016C20.3684 39.2889 19.6305 39.2889 18.9841 39.0016L1.98463 31.446C1.08182 31.0448 0.5 30.1495 0.5 29.1615V10.8385C0.5 9.85052 1.08182 8.95523 1.98463 8.55397L18.9841 0.998434C19.6305 0.711133 20.3684 0.711125 21.0148 0.998414Z" fill="#171C1F" stroke="#54ADFF"/>
<path d="M19.9791 7L12 20.2409L19.9791 16.6143V7Z" fill="#8A92B2"/>
<path d="M19.9791 16.6133L12 20.2399L19.9791 24.9576V16.6133Z" fill="#62688F"/>
<path d="M27.9591 20.2409L19.9785 7V16.6143L27.9591 20.2409Z" fill="#62688F"/>
<path d="M19.9785 24.9576L27.9591 20.2399L19.9785 16.6133V24.9576Z" fill="#454A75"/>
<path d="M12 21.7549L19.9791 32.9999V26.4696L12 21.7549Z" fill="#8A92B2"/>
<path d="M19.9785 26.4696V32.9999L27.9636 21.7549L19.9785 26.4696Z" fill="#62688F"/>
</svg>
