<svg width="40" height="40" viewBox="0 0 40 40" fill="none" xmlns="http://www.w3.org/2000/svg">
<path d="M21.0148 0.998414L38.0153 8.55399C38.9182 8.95524 39.5 9.85055 39.5 10.8385V29.1615C39.5 30.1495 38.9182 31.0448 38.0153 31.446L21.0148 39.0016C20.3684 39.2889 19.6305 39.2889 18.9841 39.0016L1.98463 31.446C1.08182 31.0448 0.5 30.1495 0.5 29.1615V10.8385C0.5 9.85052 1.08182 8.95523 1.98463 8.55397L18.9841 0.998434C19.6305 0.711133 20.3684 0.711125 21.0148 0.998414Z" fill="#171C1F" stroke="#54ADFF"/>
<path d="M27.776 11H30.9557L24.3385 17.5519C21.9421 19.9233 18.0569 19.9233 15.6588 17.5519L9.03906 11H12.2213L17.2487 15.9771C17.9812 16.699 18.9683 17.1037 19.9967 17.1037C21.0252 17.1037 22.0123 16.699 22.7448 15.9771L27.776 11Z" fill="white"/>
<path d="M12.1818 29.2185H9L15.6602 22.6262C18.0565 20.2548 21.9418 20.2548 24.3398 22.6262L31 29.2185H27.8203L22.75 24.201C22.0175 23.4791 21.0304 23.0744 20.0019 23.0744C18.9735 23.0744 17.9863 23.4791 17.2539 24.201L12.1818 29.2185Z" fill="white"/>
</svg>
