<svg width="40" height="40" viewBox="0 0 40 40" fill="none" xmlns="http://www.w3.org/2000/svg">
<path d="M21.0148 0.998414L38.0153 8.55399C38.9182 8.95524 39.5 9.85055 39.5 10.8385V29.1615C39.5 30.1495 38.9182 31.0448 38.0153 31.446L21.0148 39.0016C20.3684 39.2889 19.6305 39.2889 18.9841 39.0016L1.98463 31.446C1.08182 31.0448 0.5 30.1495 0.5 29.1615V10.8385C0.5 9.85052 1.08182 8.95523 1.98463 8.55397L18.9841 0.998434C19.6305 0.711133 20.3684 0.711125 21.0148 0.998414Z" fill="#171C1F" stroke="#54ADFF"/>
<path fill-rule="evenodd" clip-rule="evenodd" d="M12.3942 10.1025L8.01799 19.2947C8.00134 19.3289 7.99606 19.3675 8.00293 19.4049C8.0098 19.4423 8.02846 19.4766 8.05617 19.5026L19.8752 30.8281C19.9088 30.8603 19.9535 30.8783 20 30.8783C20.0465 30.8783 20.0912 30.8603 20.1248 30.8281L31.9438 19.5033C31.9715 19.4773 31.9902 19.4431 31.9971 19.4056C32.0039 19.3682 31.9987 19.3296 31.982 19.2954L27.6058 10.1032C27.5917 10.0724 27.569 10.0462 27.5404 10.0279C27.5118 10.0096 27.4786 9.99992 27.4446 10H12.5568C12.5227 9.99959 12.4892 10.009 12.4603 10.0272C12.4315 10.0454 12.4085 10.0716 12.3942 10.1025V10.1025V10.1025Z" fill="#50AF95"/>
<path fill-rule="evenodd" clip-rule="evenodd" d="M21.5189 20.2388C21.4341 20.2451 20.9957 20.2713 20.0178 20.2713C19.24 20.2713 18.6877 20.248 18.494 20.2388C15.4881 20.1066 13.2445 19.5833 13.2445 18.9568C13.2445 18.3303 15.4881 17.8078 18.494 17.6734V19.7176C18.6906 19.7318 19.2534 19.765 20.0312 19.765C20.9646 19.765 21.4319 19.7261 21.5161 19.7184V17.6749C24.5156 17.8085 26.7542 18.3318 26.7542 18.9568C26.7542 19.5819 24.5163 20.1051 21.5161 20.2381L21.5189 20.2388ZM21.5189 17.4634V15.6342H25.7049V12.8447H14.308V15.6342H18.4933V17.4627C15.0915 17.619 12.5332 18.2929 12.5332 19.1004C12.5332 19.9079 15.0915 20.581 18.4933 20.738V26.5998H21.5182V20.7359C24.9122 20.5796 27.4663 19.9064 27.4663 19.0997C27.4663 18.2929 24.9144 17.6197 21.5182 17.4627L21.5189 17.4634Z" fill="white"/>
</svg>
