<svg width="40" height="40" viewBox="0 0 40 40" fill="none" xmlns="http://www.w3.org/2000/svg">
<path d="M21.0148 0.998414L38.0153 8.55399C38.9182 8.95524 39.5 9.85055 39.5 10.8385V29.1615C39.5 30.1495 38.9182 31.0448 38.0153 31.446L21.0148 39.0016C20.3684 39.2889 19.6305 39.2889 18.9841 39.0016L1.98463 31.446C1.08182 31.0448 0.5 30.1495 0.5 29.1615V10.8385C0.5 9.85052 1.08182 8.95523 1.98463 8.55397L18.9841 0.998434C19.6305 0.711133 20.3684 0.711125 21.0148 0.998414Z" fill="#171C1F" stroke="#54ADFF"/>
<path d="M30.5622 15.929C29.4841 14.9335 27.9927 13.4134 26.778 12.3353L26.7062 12.2849C26.5866 12.1889 26.4518 12.1136 26.3073 12.0621V12.0621C23.3784 11.5159 9.74749 8.96796 9.48156 9.00031C9.40704 9.01074 9.33581 9.03776 9.27312 9.07937L9.20484 9.13327C9.12076 9.21866 9.05691 9.32181 9.01797 9.43514L9 9.48186V9.73701V9.77654C10.5345 14.0495 16.5935 28.0469 17.7866 31.3316C17.8585 31.5544 17.995 31.9784 18.2502 32H18.3077C18.4443 32 19.0264 31.2309 19.0264 31.2309C19.0264 31.2309 29.4338 18.6099 30.4867 17.2658C30.623 17.1003 30.7434 16.9222 30.8461 16.734C30.8723 16.5867 30.86 16.4351 30.8102 16.2941C30.7605 16.153 30.675 16.0272 30.5622 15.929V15.929ZM21.6966 17.3988L26.1384 13.7152L28.7438 16.1158L21.6966 17.3988ZM19.9716 17.158L12.3242 10.8906L24.6973 13.1726L19.9716 17.158ZM20.6616 18.8003L28.4886 17.5389L19.5403 28.32L20.6616 18.8003ZM11.2856 11.5159L19.3319 18.3439L18.1675 28.3272L11.2856 11.5159Z" fill="#FF060A"/>
</svg>
