<svg width="40" height="40" viewBox="0 0 40 40" fill="none" xmlns="http://www.w3.org/2000/svg">
<path d="M21.0148 0.998414L38.0153 8.55399C38.9182 8.95524 39.5 9.85055 39.5 10.8385V29.1615C39.5 30.1495 38.9182 31.0448 38.0153 31.446L21.0148 39.0016C20.3684 39.2889 19.6305 39.2889 18.9841 39.0016L1.98463 31.446C1.08182 31.0448 0.5 30.1495 0.5 29.1615V10.8385C0.5 9.85052 1.08182 8.95523 1.98463 8.55397L18.9841 0.998434C19.6305 0.711133 20.3684 0.711125 21.0148 0.998414Z" fill="#171C1F" stroke="#54ADFF"/>
<path d="M20 32C26.65 32 32 26.65 32 20C32 13.35 26.65 8 20 8C13.35 8 8 13.35 8 20C8 26.65 13.35 32 20 32Z" fill="#2775CA"/>
<path d="M23.2995 21.8996C23.2995 20.1497 22.2495 19.5497 20.1495 19.2997C18.6496 19.0997 18.3496 18.6997 18.3496 17.9996C18.3496 17.2995 18.8496 16.8497 19.8495 16.8497C20.7495 16.8497 21.2496 17.1497 21.4995 17.8997C21.5496 18.0497 21.6996 18.1496 21.8496 18.1496H22.6495C22.8495 18.1496 22.9995 17.9996 22.9995 17.7997V17.7497C22.7995 16.6496 21.8995 15.7997 20.7495 15.6997V14.4997C20.7495 14.2996 20.5995 14.1496 20.3496 14.0996H19.5996C19.3995 14.0996 19.2495 14.2496 19.1995 14.4997V15.6497C17.6995 15.8497 16.7496 16.8497 16.7496 18.0997C16.7496 19.7497 17.7496 20.3996 19.8495 20.6497C21.2496 20.8997 21.6996 21.1997 21.6996 21.9997C21.6996 22.7998 20.9995 23.3497 20.0496 23.3497C18.7495 23.3497 18.2995 22.7996 18.1495 22.0496C18.0996 21.8497 17.9496 21.7496 17.7996 21.7496H16.9495C16.7496 21.7496 16.5996 21.8996 16.5996 22.0997V22.1497C16.7995 23.3996 17.5996 24.2996 19.2495 24.5497V25.7497C19.2495 25.9496 19.3995 26.0996 19.6495 26.1497H20.3995C20.5995 26.1497 20.7495 25.9997 20.7996 25.7497V24.5497C22.2996 24.2996 23.2995 23.2496 23.2995 21.8996V21.8996Z" fill="white"/>
<path d="M17.451 27.1499C13.551 25.75 11.5509 21.4 13.001 17.5499C13.751 15.4499 15.401 13.85 17.451 13.1C17.651 13 17.751 12.85 17.751 12.5999V11.9C17.751 11.6999 17.651 11.5499 17.451 11.5C17.4009 11.5 17.301 11.5 17.2509 11.5499C12.501 13.0499 9.90093 18.1 11.4009 22.85C12.3009 25.6499 14.451 27.8 17.2509 28.7C17.451 28.7999 17.651 28.7 17.7009 28.4999C17.751 28.45 17.751 28.4 17.751 28.3V27.5999C17.751 27.4499 17.601 27.25 17.451 27.1499ZM22.751 11.5499C22.551 11.45 22.3509 11.5499 22.301 11.75C22.251 11.8 22.251 11.8499 22.251 11.95V12.65C22.251 12.85 22.401 13.0499 22.551 13.15C26.451 14.5499 28.451 18.8999 27.0009 22.75C26.2509 24.85 24.6009 26.45 22.551 27.2C22.3509 27.2999 22.251 27.4499 22.251 27.7V28.4C22.251 28.6 22.3509 28.75 22.551 28.7999C22.601 28.7999 22.701 28.7999 22.751 28.75C27.501 27.25 30.101 22.1999 28.601 17.45C27.701 14.6 25.5009 12.4499 22.751 11.5499V11.5499Z" fill="white"/>
</svg>
